{"title":"A Kiss of Chaos 2009 DVDRip XviD-MiRACLE [TheCloon].avi","uid":6162874,"size":734195712,"categoryP":"video","categoryS":"movies","magnet":"?xt=urn:btih:9352aac4df9b3bb9f93c2cd65708735447e0d49a&amp;dn=A+Kiss+of+Chaos+2009+DVDRip+XviD-MiRACLE+%5BTheCloon%5D.avi&amp;tr=udp%3A%2F%2Ftracker.openbittorrent.com%3A80&amp;tr=udp%3A%2F%2Fopen.demonii.com%3A1337&amp;tr=udp%3A%2F%2Ftracker.coppersurfer.tk%3A6969&amp;tr=udp%3A%2F%2Fexodus.desync.com%3A6969","seeders":0,"leechers":1,"uploader":"TheCloon","files":-1,"time":1297275681,"description":"### TheCloon ###\n\n\n###\nA Kiss of Chaos 2009 DVDRip XviD-MiRACLE [TheCloon].avi\n###\n\n###\n[CODE]\n\nFormat                           : AVI\nFormat/Info                      : Audio Video Interleave\nFile size                        : 700 MiB\nDuration                         : 1h 43mn\nOverall bit rate                 : 944 Kbps\nWriting application              : VirtualDubMod 1.5.10.2 (build 2540/release)\nWriting library                  : VirtualDubMod build 2540/release\n\nVideo\nID                               : 0\nFormat                           : MPEG-4 Visual\nFormat profile                   : Advanced Simple@L5\nFormat settings, BVOP            : 2\nFormat settings, QPel            : No\nFormat settings, GMC             : No warppoints\nFormat settings, Matrix          : Default (H.263)\nCodec ID                         : XVID\nCodec ID/Hint                    : XviD\nDuration                         : 1h 43mn\nBit rate                         : 801 Kbps\nWidth                            : 640 pixels\nHeight                           : 272 pixels\nDisplay aspect ratio             : 2.35:1\nFrame rate                       : 23.976 fps\nColor space                      : YUV\nChroma subsampling               : 4:2:0\nBit depth                        : 8 bits\nScan type                        : Progressive\nCompression mode                 : Lossy\nBits/(Pixel*Frame)               : 0.192\nStream size                      : 594 MiB (85%)\nWriting library                  : XviD 1.2.1 (UTC 2008-12-04)\n\nAudio\nID                               : 1\nFormat                           : MPEG Audio\nFormat version                   : Version 1\nFormat profile                   : Layer 3\nMode                             : Joint stereo\nMode extension                   : MS Stereo\nCodec ID                         : 55\nCodec ID/Hint                    : MP3\nDuration                         : 1h 43mn\nBit rate mode                    : Variable\nBit rate                         : 128 Kbps\nChannel(s)                       : 2 channels\nSampling rate                    : 48.0 KHz\nCompression mode                 : Lossy\nStream size                      : 97.2 MiB (14%)\nAlignment                        : Aligned on interleaves\nInterleave, duration             : 24 ms (0.58 video frame)\nInterleave, preload duration     : 486 ms\nWriting library                  : LAME3.90.\nEncoding settings                : -m j -V 4 -q 2 -lowpass 17.6 --abr 128\n[/CODE]\n\n### Plot ###\nA Latino thriller wherein an emotionally conflicted artist\\'s life is dragged into a vortex of Chaos..","torrent":{"xt":"urn:btih:9352aac4df9b3bb9f93c2cd65708735447e0d49a","amp;dn":"A+Kiss+of+Chaos+2009+DVDRip+XviD-MiRACLE+%5BTheCloon%5D.avi","amp;tr":["udp%3A%2F%2Ftracker.openbittorrent.com%3A80","udp%3A%2F%2Fopen.demonii.com%3A1337","udp%3A%2F%2Ftracker.coppersurfer.tk%3A6969","udp%3A%2F%2Fexodus.desync.com%3A6969"],"infoHash":"9352aac4df9b3bb9f93c2cd65708735447e0d49a","infoHashBuffer":{"type":"Buffer","data":[147,82,170,196,223,155,59,185,249,60,44,214,87,8,115,84,71,224,212,154]},"announce":[],"urlList":[]}}